<svg xmlns="http://www.w3.org/2000/svg" viewBox="0 0 200 200" width="200" height="200">
  <defs>
    <!-- Gradients for zombie colors -->
    <radialGradient id="zombieGreen" cx="50%" cy="30%" r="70%">
      <stop offset="0%" style="stop-color:#8FA663;stop-opacity:1" />
      <stop offset="100%" style="stop-color:#4A6333;stop-opacity:1" />
    </radialGradient>
    
    <radialGradient id="fleshPink" cx="50%" cy="50%" r="60%">
      <stop offset="0%" style="stop-color:#E4A5A5;stop-opacity:1" />
      <stop offset="100%" style="stop-color:#CD853F;stop-opacity:1" />
    </radialGradient>
    
    <filter id="glow">
      <feGaussianBlur stdDeviation="3" result="coloredBlur"/>
      <feMerge> 
        <feMergeNode in="coloredBlur"/>
        <feMergeNode in="SourceGraphic"/>
      </feMerge>
    </filter>
  </defs>
  
  <!-- Background circle -->
  <circle cx="100" cy="100" r="95" fill="#1A1A1A" stroke="#8B0000" stroke-width="3"/>
  
  <!-- Zombie head outline -->
  <path d="M100 30 C75 30 55 45 55 70 C55 85 50 95 45 110 C45 130 60 150 100 150 C140 150 155 130 155 110 C150 95 145 85 145 70 C145 45 125 30 100 30 Z" 
        fill="url(#zombieGreen)" stroke="#6B8E4A" stroke-width="2"/>
  
  <!-- Decay spots -->
  <ellipse cx="80" cy="50" rx="8" ry="5" fill="#8B4513" opacity="0.7"/>
  <ellipse cx="120" cy="45" rx="6" ry="4" fill="#8B4513" opacity="0.7"/>
  <ellipse cx="70" cy="80" rx="5" ry="7" fill="#663399" opacity="0.6"/>
  
  <!-- Eye sockets -->
  <ellipse cx="85" cy="70" rx="12" ry="15" fill="#1A1A1A" stroke="#8B0000" stroke-width="1"/>
  <ellipse cx="115" cy="70" rx="12" ry="15" fill="#1A1A1A" stroke="#8B0000" stroke-width="1"/>
  
  <!-- Glowing eyes -->
  <circle cx="85" cy="72" r="6" fill="#ADFF2F" filter="url(#glow)">
    <animate attributeName="opacity" values="0.8;1;0.8" dur="2s" repeatCount="indefinite"/>
  </circle>
  <circle cx="115" cy="72" r="6" fill="#ADFF2F" filter="url(#glow)">
    <animate attributeName="opacity" values="1;0.8;1" dur="2s" repeatCount="indefinite"/>
  </circle>
  
  <!-- Pupils -->
  <circle cx="87" cy="70" r="2" fill="#000000"/>
  <circle cx="113" cy="70" r="2" fill="#000000"/>
  
  <!-- Nasal cavity -->
  <path d="M100 85 L92 100 L100 110 L108 100 Z" fill="#0D0D0D" stroke="#4A6333" stroke-width="1"/>
  
  <!-- Mouth/jaw area -->
  <path d="M80 115 Q100 130 120 115 L118 125 Q100 140 82 125 Z" fill="#1A1A1A" stroke="#8B0000" stroke-width="1.5"/>
  
  <!-- Teeth -->
  <rect x="90" y="120" width="4" height="12" fill="#F5F5DC" stroke="#8B0000" stroke-width="0.5" transform="rotate(-5 92 126)"/>
  <rect x="96" y="122" width="4" height="10" fill="#F5F5DC" stroke="#8B0000" stroke-width="0.5"/>
  <rect x="102" y="120" width="4" height="12" fill="#F5F5DC" stroke="#8B0000" stroke-width="0.5" transform="rotate(5 104 126)"/>
  <rect x="108" y="122" width="4" height="8" fill="#F5F5DC" stroke="#8B0000" stroke-width="0.5"/>
  
  <!-- Broken/missing teeth -->
  <rect x="85" y="125" width="3" height="5" fill="#F5F5DC" stroke="#8B0000" stroke-width="0.5" transform="rotate(-10 86.5 127.5)"/>
  <rect x="113" y="124" width="2" height="4" fill="#F5F5DC" stroke="#8B0000" stroke-width="0.5"/>
  
  <!-- Cracks and scars -->
  <path d="M60 55 L75 75 M140 60 L125 80" stroke="#8B0000" stroke-width="2" opacity="0.8"/>
  <path d="M95 45 L105 55 M75 90 L85 100" stroke="#DC143C" stroke-width="1.5" opacity="0.7"/>
  
  <!-- Stitches -->
  <g stroke="#696969" stroke-width="1" fill="none">
    <path d="M65 95 L70 90 M70 90 L75 95 M75 95 L80 90"/>
    <path d="M120 85 L125 90 M125 90 L130 85 M130 85 L135 90"/>
  </g>
  
  <!-- Dripping effect -->
  <path d="M70 140 Q72 150 70 160" stroke="#6B8E4A" stroke-width="3" fill="none" opacity="0.6"/>
  <path d="M130 145 Q132 155 130 165" stroke="#8B0000" stroke-width="2" fill="none" opacity="0.7"/>
  
  <!-- Outer glow effect -->
  <circle cx="100" cy="100" r="95" fill="none" stroke="#ADFF2F" stroke-width="1" opacity="0.3">
    <animate attributeName="stroke-width" values="1;3;1" dur="3s" repeatCount="indefinite"/>
    <animate attributeName="opacity" values="0.3;0.6;0.3" dur="3s" repeatCount="indefinite"/>
  </circle>
  
  <!-- Title text integration -->
  <text x="100" y="180" text-anchor="middle" font-family="serif" font-size="14" fill="#F5F5DC" stroke="#8B0000" stroke-width="0.5">
    DILIGENT LOBOTOMY
  </text>
</svg>